<svg width="38" height="38" viewBox="0 0 38 38" fill="none" xmlns="http://www.w3.org/2000/svg">
<path d="M18.0006 37.4672C15.5695 37.4672 13.2929 37.0101 11.1709 36.0958C9.04891 35.1816 7.20258 33.9391 5.63191 32.3685C4.06127 30.7978 2.81883 28.9515 1.90458 26.8295C0.990328 24.7075 0.533203 22.4309 0.533203 19.9998C0.533203 17.5686 0.990328 15.292 1.90458 13.1701C2.81883 11.0481 4.06127 9.20173 5.63191 7.63107C7.20258 6.06043 9.04891 4.81799 11.1709 3.90373C13.2929 2.98948 15.5695 2.53236 18.0006 2.53236C18.7566 2.53236 19.4927 2.57825 20.2089 2.67003C20.9251 2.7618 21.6352 2.91337 22.3393 3.12474C22.8695 3.26362 23.2998 3.55771 23.6301 4.00698C23.9604 4.45626 24.1256 4.95989 24.1256 5.51786V8.50519C24.1256 9.44119 24.4499 10.2335 25.0984 10.882C25.747 11.5306 26.5392 11.8549 27.4752 11.8549H27.8122V13.0958C27.8122 13.7661 28.0522 14.3413 28.5323 14.8214C29.0124 15.3014 29.5876 15.5415 30.2579 15.5415H32.9481C33.5218 15.5415 34.0263 15.7214 34.4617 16.0813C34.8971 16.4412 35.1625 16.9002 35.2579 17.4582C35.334 17.8688 35.388 18.2824 35.42 18.6991C35.452 19.1157 35.468 19.5493 35.468 19.9998C35.468 22.4309 35.0109 24.7075 34.0967 26.8295C33.1824 28.9515 31.94 30.7978 30.3693 32.3685C28.7987 33.9391 26.9523 35.1816 24.8303 36.0958C22.7084 37.0101 20.4318 37.4672 18.0006 37.4672ZM18.0006 29.1664C19.6588 29.1664 21.1842 28.7579 22.5767 27.9409C23.9692 27.1239 25.0743 26.0173 25.8919 24.6211C26.0586 24.2564 26.0368 23.9034 25.8267 23.5623C25.6166 23.2211 25.3092 23.0505 24.9046 23.0505H11.0966C10.692 23.0505 10.3847 23.2172 10.1745 23.5505C9.9644 23.8838 9.94266 24.2329 10.1093 24.5976C10.9269 25.9937 12.035 27.1042 13.4336 27.9291C14.8321 28.754 16.3545 29.1664 18.0006 29.1664ZM12.3557 18.5215C13.0973 18.5215 13.7268 18.2588 14.2443 17.7335C14.7618 17.2081 15.0206 16.5747 15.0206 15.8331C15.0206 15.0916 14.7618 14.4581 14.2443 13.9327C13.7268 13.4074 13.0973 13.1447 12.3557 13.1447C11.5985 13.1447 10.9611 13.4035 10.4435 13.921C9.92604 14.4385 9.66729 15.0759 9.66729 15.8331C9.66729 16.5904 9.92604 17.2277 10.4435 17.7452C10.9611 18.2628 11.5985 18.5215 12.3557 18.5215ZM23.6455 18.5215C24.4028 18.5215 25.0402 18.2628 25.5577 17.7452C26.0752 17.2277 26.334 16.5904 26.334 15.8331C26.334 15.0759 26.0752 14.4385 25.5577 13.921C25.0402 13.4035 24.4028 13.1447 23.6455 13.1447C22.904 13.1447 22.2745 13.4074 21.757 13.9327C21.2394 14.4581 20.9807 15.0916 20.9807 15.8331C20.9807 16.5747 21.2394 17.2081 21.757 17.7335C22.2745 18.2588 22.904 18.5215 23.6455 18.5215ZM30.7922 8.87482H29.314C28.7005 8.87482 28.179 8.66014 27.7497 8.23078C27.3203 7.80142 27.1057 7.27997 27.1057 6.66644C27.1057 6.05292 27.3203 5.53147 27.7497 5.10211C28.179 4.67275 28.7005 4.45807 29.314 4.45807H30.7922V2.97982C30.7922 2.36629 31.0069 1.84485 31.4363 1.41548C31.8657 0.986151 32.3871 0.771484 33.0006 0.771484C33.6142 0.771484 34.1356 0.986151 34.565 1.41548C34.9943 1.84485 35.209 2.36629 35.209 2.97982V4.45807H36.6872C37.3008 4.45807 37.8222 4.67275 38.2516 5.10211C38.6809 5.53147 38.8956 6.05292 38.8956 6.66644C38.8956 7.27997 38.6809 7.80142 38.2516 8.23078C37.8222 8.66014 37.3008 8.87482 36.6872 8.87482H35.209V10.3531C35.209 10.9666 34.9943 11.488 34.565 11.9174C34.1356 12.3467 33.6142 12.5614 33.0006 12.5614C32.3871 12.5614 31.8657 12.3467 31.4363 11.9174C31.0069 11.488 30.7922 10.9666 30.7922 10.3531V8.87482Z" fill="#7F04E3"/>
</svg>
