<svg width="33" height="33" viewBox="0 0 33 33" fill="none" xmlns="http://www.w3.org/2000/svg">
<path d="M27.2644 11.4713C26.7268 11.4713 26.2725 11.2856 25.9012 10.9144C25.53 10.5431 25.3443 10.0888 25.3443 9.55126V7.65562H23.4487C22.9112 7.65562 22.4569 7.46999 22.0856 7.09875C21.7144 6.7275 21.5287 6.27312 21.5287 5.73561C21.5287 5.19813 21.7144 4.74377 22.0856 4.37252C22.4569 4.00124 22.9112 3.8156 23.4487 3.8156H25.3443V1.92001C25.3443 1.3825 25.53 0.928118 25.9012 0.55687C26.2725 0.185622 26.7268 0 27.2644 0C27.8019 0 28.2562 0.185622 28.6275 0.55687C28.9987 0.928118 29.1844 1.3825 29.1844 1.92001V3.8156H31.08C31.6175 3.8156 32.0719 4.00124 32.4431 4.37252C32.8144 4.74377 33 5.19813 33 5.73561C33 6.27312 32.8144 6.7275 32.4431 7.09875C32.0719 7.46999 31.6175 7.65562 31.08 7.65562H29.1844V9.55126C29.1844 10.0888 28.9987 10.5431 28.6275 10.9144C28.2562 11.2856 27.8019 11.4713 27.2644 11.4713ZM8.28942 25.2712H24.4181C24.8931 25.2712 25.2371 25.0644 25.4503 24.6506C25.6634 24.2369 25.6224 23.8375 25.3274 23.4525L21.1444 17.8688C20.9069 17.5575 20.6037 17.4019 20.235 17.4019C19.8662 17.4019 19.5631 17.5575 19.3256 17.8688L15.06 23.5462L12.0882 19.5938C11.8507 19.2825 11.5475 19.1269 11.1788 19.1269C10.81 19.1269 10.5069 19.2825 10.2694 19.5938L7.38004 23.4525C7.08504 23.8375 7.0441 24.2369 7.25722 24.6506C7.47035 25.0644 7.81441 25.2712 8.28942 25.2712ZM4.57128 33C3.29754 33 2.21722 32.5566 1.33032 31.6697C0.443439 30.7828 0 29.7025 0 28.4287V4.8638C0 3.59003 0.443439 2.50971 1.33032 1.62283C2.21722 0.735955 3.29754 0.292515 4.57128 0.292515H16.7624C17.3974 0.292515 17.9371 0.514694 18.3815 0.959053C18.8259 1.40344 19.0481 1.94313 19.0481 2.57813V7.82627C19.0481 8.46127 19.2703 9.00096 19.7147 9.44534C20.159 9.88973 20.6987 10.1119 21.3337 10.1119H22.8881V11.6663C22.8881 12.3013 23.1103 12.841 23.5547 13.2854C23.999 13.7297 24.5387 13.9519 25.1737 13.9519H30.4218C31.0568 13.9519 31.5965 14.1741 32.0409 14.6185C32.4853 15.0629 32.7075 15.6026 32.7075 16.2376V28.4287C32.7075 29.7025 32.264 30.7828 31.3772 31.6697C30.4903 32.5566 29.4099 33 28.1362 33H4.57128Z" fill="#FF006B"/>
</svg>
