<svg width="39" height="38" viewBox="0 0 39 38" fill="none" xmlns="http://www.w3.org/2000/svg">
<path fill-rule="evenodd" clip-rule="evenodd" d="M38.9834 13.7578C38.9382 13.4129 38.8062 13.0413 38.6216 12.7402C38.5163 12.5679 38.3346 12.3806 36.4832 10.5304C34.6519 8.70106 34.4428 8.49835 34.2767 8.39685C33.8029 8.10709 33.2186 7.96948 32.7108 8.02783C32.2414 8.08158 31.9263 8.1948 31.5319 8.4509C31.3747 8.55337 30.6918 9.22653 26.2461 13.6665L21.1406 18.7644L26.1927 23.8138C29.547 27.1667 31.3057 28.9091 31.4258 29.0002C32.0457 29.4703 32.8316 29.6231 33.5975 29.4226C33.8555 29.3552 34.2263 29.1745 34.4413 29.0115C34.6689 28.8391 38.4147 25.0861 38.5452 24.9004C38.7335 24.631 38.8722 24.3154 38.9426 23.9907C39.0887 23.3226 38.956 22.6425 38.563 22.0411C38.4911 21.9315 38.0529 21.4791 36.9051 20.3284L35.3451 18.7645L36.9051 17.2007C38.0536 16.0498 38.4911 15.5976 38.563 15.488C38.755 15.1938 38.8826 14.8927 38.9545 14.5591C38.9938 14.3788 39.0086 13.9538 38.9834 13.7578Z" fill="url(#paint0_linear_1_289)"/>
<path d="M18.9563 37.8879C8.47696 37.8879 0 29.4016 0 18.9105C0 8.48638 8.47696 0 18.9563 0C24.2297 0 28.9683 2.13833 32.3723 5.61305L22.8944 15.0349C21.8932 13.9657 20.4915 13.3644 18.9563 13.3644C15.8192 13.3644 13.3495 15.8368 13.3495 18.9105C13.3495 22.0511 15.8192 24.5236 18.9563 24.5236C20.5582 24.5236 22.0267 23.8554 23.0279 22.7194L32.439 32.2081C29.0351 35.6828 24.2297 37.8879 18.9563 37.8879Z" fill="white"/>
<defs>
<linearGradient id="paint0_linear_1_289" x1="39.0004" y1="6.00561" x2="25.2095" y2="29.5095" gradientUnits="userSpaceOnUse">
<stop stop-color="#7F04E3"/>
<stop offset="1" stop-color="#FF006B"/>
</linearGradient>
</defs>
</svg>
