<svg width="35" height="35" viewBox="0 0 35 35" fill="none" xmlns="http://www.w3.org/2000/svg">
<path d="M15.8809 18.3395L13.798 16.2734C13.4718 15.9472 13.0713 15.7841 12.5965 15.7841C12.1217 15.7841 11.7156 15.9528 11.3783 16.2902C11.052 16.6164 10.8889 17.0196 10.8889 17.5C10.8889 17.9804 11.052 18.3837 11.3783 18.7099L14.4314 21.7631C14.8414 22.1731 15.3246 22.378 15.8809 22.378C16.4373 22.378 16.9204 22.1731 17.3304 21.7631L23.6211 15.4724C23.9585 15.135 24.1244 14.7317 24.1188 14.2625C24.1132 13.7933 23.9473 13.39 23.6211 13.0527C23.2837 12.7153 22.8776 12.5438 22.4028 12.5382C21.9281 12.5326 21.522 12.6985 21.1846 13.0359L15.8809 18.3395ZM11.0414 33.0759L8.87136 29.386L4.74069 28.4827C4.23909 28.3766 3.83272 28.1121 3.52158 27.6893C3.21045 27.2664 3.08057 26.7969 3.13196 26.2808L3.55592 22.0563L0.75244 18.8289C0.408365 18.4446 0.236328 18.0016 0.236328 17.5C0.236328 16.9984 0.408365 16.5555 0.75244 16.1711L3.55592 12.9437L3.13196 8.71923C3.08057 8.2031 3.21045 7.73361 3.52158 7.31076C3.83272 6.88791 4.23909 6.62342 4.74069 6.5173L8.87136 5.61408L11.0414 1.92414C11.3051 1.48844 11.6785 1.19099 12.1617 1.03178C12.6448 0.872606 13.1244 0.891877 13.6003 1.0896L17.4997 2.74188L21.3991 1.0896C21.875 0.891877 22.3545 0.872606 22.8377 1.03178C23.3209 1.19099 23.6943 1.48844 23.958 1.92414L26.128 5.61408L30.2587 6.5173C30.7603 6.62342 31.1666 6.88791 31.4778 7.31076C31.7889 7.73361 31.9188 8.2031 31.8674 8.71923L31.4434 12.9437L34.2469 16.1711C34.591 16.5555 34.763 16.9984 34.763 17.5C34.763 18.0016 34.591 18.4446 34.2469 18.8289L31.4434 22.0563L31.8674 26.2808C31.9188 26.7969 31.7889 27.2664 31.4778 27.6893C31.1666 28.1121 30.7603 28.3766 30.2587 28.4827L26.128 29.386L23.958 33.0759C23.6943 33.5116 23.3209 33.809 22.8377 33.9682C22.3545 34.1274 21.875 34.1081 21.3991 33.9104L17.4997 32.2582L13.6003 33.9104C13.1244 34.1082 12.6448 34.1274 12.1617 33.9683C11.6785 33.8091 11.3051 33.5116 11.0414 33.0759Z" fill="#FF006B"/>
</svg>
