<svg width="30" height="28" viewBox="0 0 30 28" fill="none" xmlns="http://www.w3.org/2000/svg">
<path d="M23.9641 27.3077C22.2902 27.3077 20.8706 26.7251 19.7054 25.5599C18.5402 24.3946 17.9576 22.9751 17.9576 21.3011C17.9576 19.6272 18.5402 18.2077 19.7054 17.0425C20.8706 15.8772 22.2902 15.2946 23.9641 15.2946C25.638 15.2946 27.0576 15.8772 28.2228 17.0425C29.388 18.2077 29.9706 19.6272 29.9706 21.3011C29.9706 22.9751 29.388 24.3946 28.2228 25.5599C27.0576 26.7251 25.638 27.3077 23.9641 27.3077ZM12.9701 23.2887H3.41892C2.86675 23.2887 2.39745 23.0955 2.01102 22.709C1.62462 22.3226 1.43142 21.8533 1.43142 21.3011C1.43142 20.749 1.62462 20.2797 2.01102 19.8932C2.39745 19.5068 2.86675 19.3136 3.41892 19.3136H12.9701C13.5222 19.3136 13.9915 19.5068 14.378 19.8932C14.7644 20.2797 14.9576 20.749 14.9576 21.3011C14.9576 21.8533 14.7644 22.3226 14.378 22.709C13.9915 23.0955 13.5222 23.2887 12.9701 23.2887ZM6.03582 12.7055C4.3619 12.7055 2.94232 12.1229 1.7771 10.9576C0.611897 9.79241 0.0292969 8.37285 0.0292969 6.69895C0.0292969 5.02502 0.611897 3.60544 1.7771 2.44022C2.94232 1.27499 4.3619 0.692383 6.03582 0.692383C7.70975 0.692383 9.12932 1.27499 10.2945 2.44022C11.4597 3.60544 12.0423 5.02502 12.0423 6.69895C12.0423 8.37285 11.4597 9.79241 10.2945 10.9576C9.12932 12.1229 7.70975 12.7055 6.03582 12.7055ZM26.581 8.68645H17.0299C16.4777 8.68645 16.0084 8.49325 15.622 8.10685C15.2356 7.72042 15.0423 7.25112 15.0423 6.69895C15.0423 6.14675 15.2356 5.67744 15.622 5.29104C16.0084 4.90462 16.4777 4.71141 17.0299 4.71141H26.581C27.1332 4.71141 27.6025 4.90462 27.9889 5.29104C28.3753 5.67744 28.5685 6.14675 28.5685 6.69895C28.5685 7.25112 28.3753 7.72042 27.9889 8.10685C27.6025 8.49325 27.1332 8.68645 26.581 8.68645Z" fill="#7F04E3"/>
</svg>
